<mxfile host="app.diagrams.net" agent="Mozilla/5.0 (Windows NT 10.0; Win64; x64) AppleWebKit/537.36 (KHTML, like Gecko) Chrome/133.0.0.0 Safari/537.36 OPR/118.0.0.0" version="26.2.14">
  <diagram name="Page-1" id="e7e014a7-5840-1c2e-5031-d8a46d1fe8dd">
    <mxGraphModel grid="1" page="1" gridSize="10" guides="1" tooltips="1" connect="1" arrows="1" fold="1" pageScale="1" pageWidth="1169" pageHeight="826" background="none" math="0" shadow="0">
      <root>
        <mxCell id="0" />
        <mxCell id="1" parent="0" />
        <mxCell id="Cra043CWJEHbv_4mZrZP-41" value="Pessoa" style="swimlane;fontStyle=1;align=center;verticalAlign=top;childLayout=stackLayout;horizontal=1;startSize=26;horizontalStack=0;resizeParent=1;resizeParentMax=0;resizeLast=0;collapsible=1;marginBottom=0;whiteSpace=wrap;html=1;" vertex="1" parent="1">
          <mxGeometry x="360" y="20" width="200" height="210" as="geometry" />
        </mxCell>
        <mxCell id="Cra043CWJEHbv_4mZrZP-42" value="- nome: String&amp;nbsp; &amp;nbsp; &amp;nbsp; &amp;nbsp; &amp;nbsp; &amp;nbsp; &amp;nbsp;&amp;nbsp;&lt;div&gt;&amp;nbsp;- cpf: String&amp;nbsp; &amp;nbsp; &amp;nbsp; &amp;nbsp; &amp;nbsp; &amp;nbsp; &amp;nbsp; &amp;nbsp;&lt;br&gt;&amp;nbsp;-dataNascimento:LocalDate&lt;/div&gt;" style="text;strokeColor=none;fillColor=none;align=left;verticalAlign=top;spacingLeft=4;spacingRight=4;overflow=hidden;rotatable=0;points=[[0,0.5],[1,0.5]];portConstraint=eastwest;whiteSpace=wrap;html=1;" vertex="1" parent="Cra043CWJEHbv_4mZrZP-41">
          <mxGeometry y="26" width="200" height="64" as="geometry" />
        </mxCell>
        <mxCell id="Cra043CWJEHbv_4mZrZP-43" value="" style="line;strokeWidth=1;fillColor=none;align=left;verticalAlign=middle;spacingTop=-1;spacingLeft=3;spacingRight=3;rotatable=0;labelPosition=right;points=[];portConstraint=eastwest;strokeColor=inherit;" vertex="1" parent="Cra043CWJEHbv_4mZrZP-41">
          <mxGeometry y="90" width="200" height="8" as="geometry" />
        </mxCell>
        <mxCell id="Cra043CWJEHbv_4mZrZP-44" value="&lt;div&gt;+setNome(): void&lt;/div&gt;&lt;div&gt;setCPF():void&lt;/div&gt;&lt;div&gt;setDataNascimento():void&lt;/div&gt;&lt;div&gt;+ toString: String&lt;/div&gt;+ getNome(): String&amp;nbsp; &amp;nbsp; &amp;nbsp; &amp;nbsp;&amp;nbsp;&lt;br&gt;+ getCpf(): String&amp;nbsp; &amp;nbsp; &amp;nbsp; &amp;nbsp; &amp;nbsp;&amp;nbsp;&lt;br&gt;+ getDataNascimento():LocalDate" style="text;strokeColor=none;fillColor=none;align=left;verticalAlign=top;spacingLeft=4;spacingRight=4;overflow=hidden;rotatable=0;points=[[0,0.5],[1,0.5]];portConstraint=eastwest;whiteSpace=wrap;html=1;" vertex="1" parent="Cra043CWJEHbv_4mZrZP-41">
          <mxGeometry y="98" width="200" height="112" as="geometry" />
        </mxCell>
        <mxCell id="Cra043CWJEHbv_4mZrZP-70" style="edgeStyle=orthogonalEdgeStyle;rounded=0;orthogonalLoop=1;jettySize=auto;html=1;exitX=0.5;exitY=0;exitDx=0;exitDy=0;" edge="1" parent="1" source="Cra043CWJEHbv_4mZrZP-46" target="Cra043CWJEHbv_4mZrZP-44">
          <mxGeometry relative="1" as="geometry" />
        </mxCell>
        <mxCell id="Cra043CWJEHbv_4mZrZP-46" value="Funcionario" style="swimlane;fontStyle=1;align=center;verticalAlign=top;childLayout=stackLayout;horizontal=1;startSize=26;horizontalStack=0;resizeParent=1;resizeParentMax=0;resizeLast=0;collapsible=1;marginBottom=0;whiteSpace=wrap;html=1;" vertex="1" parent="1">
          <mxGeometry x="-240" y="330" width="600" height="280" as="geometry" />
        </mxCell>
        <mxCell id="Cra043CWJEHbv_4mZrZP-47" value="&lt;div&gt;&amp;nbsp;- salarioBruto: double&amp;nbsp; &amp;nbsp; &amp;nbsp; &amp;nbsp; &amp;nbsp;&lt;/div&gt;&lt;div&gt;- descontoINSS: double&amp;nbsp; &amp;nbsp; &amp;nbsp;&lt;/div&gt;&lt;div&gt;- descontoIR: double&amp;nbsp; &amp;nbsp; &amp;nbsp; &amp;nbsp; &amp;nbsp;&lt;/div&gt;&lt;div&gt;&lt;span style=&quot;background-color: transparent; color: light-dark(rgb(0, 0, 0), rgb(255, 255, 255));&quot;&gt;- dependentes:List&amp;lt;Dependente&amp;gt;&amp;nbsp;&lt;/span&gt;&lt;/div&gt;" style="text;strokeColor=none;fillColor=none;align=left;verticalAlign=top;spacingLeft=4;spacingRight=4;overflow=hidden;rotatable=0;points=[[0,0.5],[1,0.5]];portConstraint=eastwest;whiteSpace=wrap;html=1;" vertex="1" parent="Cra043CWJEHbv_4mZrZP-46">
          <mxGeometry y="26" width="600" height="84" as="geometry" />
        </mxCell>
        <mxCell id="Cra043CWJEHbv_4mZrZP-48" value="" style="line;strokeWidth=1;fillColor=none;align=left;verticalAlign=middle;spacingTop=-1;spacingLeft=3;spacingRight=3;rotatable=0;labelPosition=right;points=[];portConstraint=eastwest;strokeColor=inherit;" vertex="1" parent="Cra043CWJEHbv_4mZrZP-46">
          <mxGeometry y="110" width="600" height="8" as="geometry" />
        </mxCell>
        <mxCell id="Cra043CWJEHbv_4mZrZP-49" value="&lt;div&gt;+&amp;nbsp;&lt;font style=&quot;color: light-dark(rgb(0, 0, 0), rgb(255, 255, 255));&quot;&gt;&lt;font style=&quot;&quot;&gt;&lt;span style=&quot;font-family: &amp;quot;JetBrains Mono&amp;quot;, monospace;&quot;&gt;Funcionario(salarioBruto:double,&lt;/span&gt;&lt;span style=&quot;font-family: &amp;quot;JetBrains Mono&amp;quot;, monospace;&quot;&gt;descontoINS&lt;span style=&quot;background-color: light-dark(#ffffff, var(--ge-dark-color, #121212));&quot;&gt;S&lt;/span&gt;&lt;/span&gt;&lt;span style=&quot;font-family: &amp;quot;JetBrains Mono&amp;quot;, monospace; background-color: light-dark(#ffffff, var(--ge-dark-color, #121212));&quot;&gt;:&lt;/span&gt;&lt;/font&gt;&lt;span style=&quot;background-color: light-dark(#ffffff, var(--ge-dark-color, #121212)); font-family: &amp;quot;JetBrains Mono&amp;quot;, monospace;&quot;&gt;double&lt;/span&gt;&lt;font&gt;&lt;span style=&quot;font-family: &amp;quot;JetBrains Mono&amp;quot;, monospace;&quot;&gt;,&lt;/span&gt;&lt;span style=&quot;font-family: &amp;quot;JetBrains Mono&amp;quot;, monospace;&quot;&gt;descontoIR:&lt;/span&gt;&lt;/font&gt;&lt;span style=&quot;background-color: light-dark(#ffffff, var(--ge-dark-color, #121212)); font-family: &amp;quot;JetBrains Mono&amp;quot;, monospace;&quot;&gt;double&lt;/span&gt;&lt;font style=&quot;&quot;&gt;&lt;span&gt;&lt;span style=&quot;font-family: &amp;quot;JetBrains Mono&amp;quot;, monospace;&quot;&gt;,&lt;/span&gt;&lt;span style=&quot;font-family: &amp;quot;JetBrains Mono&amp;quot;, monospace;&quot;&gt;dependentes)&lt;/span&gt;&lt;/span&gt;&lt;span style=&quot;background-color: transparent; text-wrap-mode: nowrap; font-family: monospace; font-size: 0px;&quot;&gt;%&lt;/span&gt;&lt;/font&gt;&lt;span style=&quot;background-color: transparent; text-wrap-mode: nowrap; font-family: monospace; font-size: 0px;&quot;&gt;3CmxGraphMo:&lt;/span&gt;&lt;span style=&quot;font-family: &amp;quot;JetBrains Mono&amp;quot;, monospace; background-color: transparent;&quot;&gt;double&lt;/span&gt;&lt;/font&gt;&lt;span style=&quot;background-color: transparent; text-wrap-mode: nowrap; color: rgba(0, 0, 0, 0); font-family: monospace; font-size: 0px;&quot;&gt;del%3E%3Croot%3E%3CmxCell%20id%3D%220%22%2F%3E%3CmxCell%20id%3D%221%22%20parent%3D%220%22%2F%3E%3CmxCell%20id%3D%222%22%20value%3D%22%26lt%3Bdiv%26gt%3B%2B%26amp%3Bnbsp%3B%26lt%3Bspan%20style%3D%26quot%3Bcolor%3A%20rgb(86%2C%20168%2C%20245)%3B%20font-family%3A%20%26amp%3Bquot%3BJetBrains%20Mono%26amp%3Bquot%3B%2C%20monospace%3B%20background-color%3A%20rgb(30%2C%2031%2C%2034)%3B%26quot%3B%26gt%3BFuncionario()%26lt%3B%2Fspan%26gt%3B%26lt%3B%2Fdiv%26gt%3B%2B%20calcularINSS()%3A%20double%26amp%3Bnbsp%3B%26lt%3Bbr%26gt%3B%2B%20calcularIR()%3A%20double%26amp%3Bnbsp%3B%20%26amp%3Bnbsp%3B%20%26amp%3Bnbsp%3B%20%2B%26amp%3Bnbsp%3BcalcularSalarioLiquido()%3A%20double%26lt%3Bdiv%26gt%3B%2B%26amp%3Bnbsp%3B%26lt%3B%2Fdiv%26gt%3B%22%20style%3D%22text%3BstrokeColor%3Dnone%3BfillColor%3Dnone%3Balign%3Dleft%3BverticalAlign%3Dtop%3BspacingLeft%3D4%3BspacingRight%3D4%3Boverflow%3Dhidden%3Brotatable%3D0%3Bpoints%3D%5B%5B0%2C0.5%5D%2C%5B1%2C0.5%5D%5D%3BportConstraint%3Deastwest%3BwhiteSpace%3Dwrap%3Bhtml%3D1%3B%22%20vertex%3D%221%22%20parent%3D%221%22%3E%3CmxGeometry%20x%3D%22150%22%20y%3D%22418%22%20width%3D%22220%22%20height%3D%2272%22%20as%3D%22geometry%22%2F%3E%3C%2FmxCell%3E%3C%2Froot%3E%3C%2FmxGraphModel%3E&lt;/span&gt;&lt;span style=&quot;background-color: transparent; text-wrap-mode: nowrap; color: rgba(0, 0, 0, 0); font-family: monospace; font-size: 0px;&quot;&gt;%3CmxGraphModel%3E%3Croot%3E%3CmxCell%20id%3D%220%22%2F%3E%3CmxCell%20id%3D%221%22%20parent%3D%220%22%2F%3E%3CmxCell%20id%3D%222%22%20value%3D%22%26lt%3Bdiv%26gt%3B%2B%26amp%3Bnbsp%3B%26lt%3Bspan%20style%3D%26quot%3Bcolor%3A%20rgb(86%2C%20168%2C%20245)%3B%20font-family%3A%20%26amp%3Bquot%3BJetBrains%20Mono%26amp%3Bquot%3B%2C%20monospace%3B%20background-color%3A%20rgb(30%2C%2031%2C%2034)%3B%26quot%3B%26gt%3BFuncionario()%26lt%3B%2Fspan%26gt%3B%26lt%3B%2Fdiv%26gt%3B%2B%20calcularINSS()%3A%20double%26amp%3Bnbsp%3B%26lt%3Bbr%26gt%3B%2B%20calcularIR()%3A%20double%26amp%3Bnbsp%3B%20%26amp%3Bnbsp%3B%20%26amp%3Bnbsp%3B%20%2B%26amp%3Bnbsp%3BcalcularSalarioLiquido()%3A%20double%26lt%3Bdiv%26gt%3B%2B%26amp%3Bnbsp%3B%26lt%3B%2Fdiv%26gt%3B%22%20style%3D%22text%3BstrokeColor%3Dnone%3BfillColor%3Dnone%3Balign%3Dleft%3BverticalAlign%3Dtop%3BspacingLeft%3D4%3BspacingRight%3D4%3Boverflow%3Dhidden%3Brotatable%3D0%3Bpoints%3D%5B%5B0%2C0.5%5D%2C%5B1%2C0.5%5D%5D%3BportConstraint%3Deastwest%3BwhiteSpace%3Dwrap%3Bhtml%3D1%3B%22%20vertex%3D%221%22%20parent%3D%221%22%3E%3CmxGeometry%20x%3D%22150%22%20y%3D%22418%22%20width%3D%22220%22%20height%3D%2272%22%20as%3D%22geometry%22%2F%3E%3C%2FmxCell%3E%3C%2Froot%3E%3C%2FmxGraphModel%3Es&lt;/span&gt;&lt;/div&gt;&lt;div&gt;+ toString: String&lt;/div&gt;&lt;div&gt;+ setSalarioBruto(): Void&lt;/div&gt;&lt;div&gt;+ getDependentes(): List&lt;/div&gt;&lt;div&gt;+ getSalarioBruto(): Double&lt;/div&gt;&lt;div&gt;+ getDescontoINSS(): Double&lt;/div&gt;+ calcularINSS(): Double&lt;br&gt;+ calcularIR(): Double&lt;div&gt;+calcularDescontos(): Void&lt;div&gt;&amp;nbsp;+&amp;nbsp;calcularSalarioLiquido(): Double&lt;/div&gt;&lt;/div&gt;" style="text;strokeColor=none;fillColor=none;align=left;verticalAlign=top;spacingLeft=4;spacingRight=4;overflow=hidden;rotatable=0;points=[[0,0.5],[1,0.5]];portConstraint=eastwest;whiteSpace=wrap;html=1;" vertex="1" parent="Cra043CWJEHbv_4mZrZP-46">
          <mxGeometry y="118" width="600" height="162" as="geometry" />
        </mxCell>
        <mxCell id="Cra043CWJEHbv_4mZrZP-50" value="&lt;div&gt;&lt;span style=&quot;font-weight: normal;&quot;&gt;&amp;lt;&amp;lt;enum&amp;gt;&amp;gt;&lt;/span&gt;&lt;/div&gt;Parentesco&amp;nbsp;&amp;nbsp;" style="swimlane;fontStyle=1;align=center;verticalAlign=top;childLayout=stackLayout;horizontal=1;startSize=40;horizontalStack=0;resizeParent=1;resizeParentMax=0;resizeLast=0;collapsible=1;marginBottom=0;whiteSpace=wrap;html=1;" vertex="1" parent="1">
          <mxGeometry x="820" y="240" width="160" height="128" as="geometry">
            <mxRectangle x="570" y="260" width="100" height="50" as="alternateBounds" />
          </mxGeometry>
        </mxCell>
        <mxCell id="Cra043CWJEHbv_4mZrZP-51" value="+ FILHO&amp;nbsp; &amp;nbsp; &amp;nbsp; &amp;nbsp; &amp;nbsp; &amp;nbsp; &amp;nbsp; &amp;nbsp; &amp;nbsp; &amp;nbsp;&amp;nbsp;&lt;br&gt;+ SOBRINHO&amp;nbsp; &amp;nbsp; &amp;nbsp; &amp;nbsp; &amp;nbsp; &amp;nbsp; &amp;nbsp; &amp;nbsp;&amp;nbsp;&lt;br&gt;+ OUTROS" style="text;strokeColor=none;fillColor=none;align=left;verticalAlign=top;spacingLeft=4;spacingRight=4;overflow=hidden;rotatable=0;points=[[0,0.5],[1,0.5]];portConstraint=eastwest;whiteSpace=wrap;html=1;" vertex="1" parent="Cra043CWJEHbv_4mZrZP-50">
          <mxGeometry y="40" width="160" height="54" as="geometry" />
        </mxCell>
        <mxCell id="Cra043CWJEHbv_4mZrZP-52" value="" style="line;strokeWidth=1;fillColor=none;align=left;verticalAlign=middle;spacingTop=-1;spacingLeft=3;spacingRight=3;rotatable=0;labelPosition=right;points=[];portConstraint=eastwest;strokeColor=inherit;" vertex="1" parent="Cra043CWJEHbv_4mZrZP-50">
          <mxGeometry y="94" width="160" height="8" as="geometry" />
        </mxCell>
        <mxCell id="Cra043CWJEHbv_4mZrZP-53" value="parentesco Parentesco" style="text;strokeColor=none;fillColor=none;align=left;verticalAlign=top;spacingLeft=4;spacingRight=4;overflow=hidden;rotatable=0;points=[[0,0.5],[1,0.5]];portConstraint=eastwest;whiteSpace=wrap;html=1;" vertex="1" parent="Cra043CWJEHbv_4mZrZP-50">
          <mxGeometry y="102" width="160" height="26" as="geometry" />
        </mxCell>
        <mxCell id="Cra043CWJEHbv_4mZrZP-86" value="&lt;code data-end=&quot;745&quot; data-start=&quot;733&quot;&gt;Dependente&lt;/code&gt;" style="swimlane;fontStyle=0;childLayout=stackLayout;horizontal=1;startSize=26;fillColor=none;horizontalStack=0;resizeParent=1;resizeParentMax=0;resizeLast=0;collapsible=1;marginBottom=0;whiteSpace=wrap;html=1;" vertex="1" parent="1">
          <mxGeometry x="410" y="318" width="200" height="78" as="geometry" />
        </mxCell>
        <mxCell id="Cra043CWJEHbv_4mZrZP-87" value="+ parentesco: Parentesco&lt;div&gt;&lt;br/&gt;&lt;/div&gt;" style="text;strokeColor=none;fillColor=none;align=left;verticalAlign=top;spacingLeft=4;spacingRight=4;overflow=hidden;rotatable=0;points=[[0,0.5],[1,0.5]];portConstraint=eastwest;whiteSpace=wrap;html=1;" vertex="1" parent="Cra043CWJEHbv_4mZrZP-86">
          <mxGeometry y="26" width="200" height="26" as="geometry" />
        </mxCell>
        <mxCell id="Cra043CWJEHbv_4mZrZP-88" value="+ getParentesco(): Parentesco&lt;div&gt;&lt;br/&gt;&lt;/div&gt;" style="text;strokeColor=none;fillColor=none;align=left;verticalAlign=top;spacingLeft=4;spacingRight=4;overflow=hidden;rotatable=0;points=[[0,0.5],[1,0.5]];portConstraint=eastwest;whiteSpace=wrap;html=1;" vertex="1" parent="Cra043CWJEHbv_4mZrZP-86">
          <mxGeometry y="52" width="200" height="26" as="geometry" />
        </mxCell>
        <mxCell id="Cra043CWJEHbv_4mZrZP-100" style="edgeStyle=orthogonalEdgeStyle;rounded=0;orthogonalLoop=1;jettySize=auto;html=1;exitX=0;exitY=0.5;exitDx=0;exitDy=0;entryX=1;entryY=0.25;entryDx=0;entryDy=0;" edge="1" parent="1" source="Cra043CWJEHbv_4mZrZP-51" target="Cra043CWJEHbv_4mZrZP-86">
          <mxGeometry relative="1" as="geometry" />
        </mxCell>
        <mxCell id="Cra043CWJEHbv_4mZrZP-101" style="edgeStyle=orthogonalEdgeStyle;rounded=0;orthogonalLoop=1;jettySize=auto;html=1;exitX=0;exitY=0.5;exitDx=0;exitDy=0;entryX=1;entryY=0.5;entryDx=0;entryDy=0;" edge="1" parent="1" source="Cra043CWJEHbv_4mZrZP-87" target="Cra043CWJEHbv_4mZrZP-47">
          <mxGeometry relative="1" as="geometry" />
        </mxCell>
        <mxCell id="Cra043CWJEHbv_4mZrZP-102" value="&amp;nbsp;FolhaPagamento" style="swimlane;fontStyle=1;align=center;verticalAlign=top;childLayout=stackLayout;horizontal=1;startSize=26;horizontalStack=0;resizeParent=1;resizeParentMax=0;resizeLast=0;collapsible=1;marginBottom=0;whiteSpace=wrap;html=1;" vertex="1" parent="1">
          <mxGeometry x="420" y="440" width="200" height="220" as="geometry" />
        </mxCell>
        <mxCell id="Cra043CWJEHbv_4mZrZP-103" value="- codigo: int&amp;nbsp; &amp;nbsp; &amp;nbsp; &amp;nbsp; &amp;nbsp; &amp;nbsp; &amp;nbsp; &amp;nbsp;&lt;br&gt;- funcionario: Funcionario&amp;nbsp;&amp;nbsp;&lt;br&gt;-dataPagamento:LocalDate&amp;nbsp;&amp;nbsp;&lt;br&gt;- descontoINSS: double&amp;nbsp; &amp;nbsp; &amp;nbsp;&amp;nbsp;&lt;br&gt;- descontoIR: double&amp;nbsp; &amp;nbsp; &amp;nbsp; &amp;nbsp;&amp;nbsp;&lt;br&gt;- salarioLiquido: double" style="text;strokeColor=none;fillColor=none;align=left;verticalAlign=top;spacingLeft=4;spacingRight=4;overflow=hidden;rotatable=0;points=[[0,0.5],[1,0.5]];portConstraint=eastwest;whiteSpace=wrap;html=1;" vertex="1" parent="Cra043CWJEHbv_4mZrZP-102">
          <mxGeometry y="26" width="200" height="94" as="geometry" />
        </mxCell>
        <mxCell id="Cra043CWJEHbv_4mZrZP-104" value="" style="line;strokeWidth=1;fillColor=none;align=left;verticalAlign=middle;spacingTop=-1;spacingLeft=3;spacingRight=3;rotatable=0;labelPosition=right;points=[];portConstraint=eastwest;strokeColor=inherit;" vertex="1" parent="Cra043CWJEHbv_4mZrZP-102">
          <mxGeometry y="120" width="200" height="8" as="geometry" />
        </mxCell>
        <mxCell id="Cra043CWJEHbv_4mZrZP-105" value="getCodigo(): Int&lt;div&gt;getFuncionario(): Funcionario&lt;/div&gt;&lt;div&gt;getDataPagamento(): LocalDate&lt;/div&gt;&lt;div&gt;getDescintoIR():Double&lt;/div&gt;&lt;div&gt;detSalarioLiquido(): Double&lt;/div&gt;&lt;div&gt;&lt;br&gt;&lt;/div&gt;" style="text;strokeColor=none;fillColor=none;align=left;verticalAlign=top;spacingLeft=4;spacingRight=4;overflow=hidden;rotatable=0;points=[[0,0.5],[1,0.5]];portConstraint=eastwest;whiteSpace=wrap;html=1;" vertex="1" parent="Cra043CWJEHbv_4mZrZP-102">
          <mxGeometry y="128" width="200" height="92" as="geometry" />
        </mxCell>
        <mxCell id="Cra043CWJEHbv_4mZrZP-106" style="edgeStyle=orthogonalEdgeStyle;rounded=0;orthogonalLoop=1;jettySize=auto;html=1;exitX=0;exitY=0.5;exitDx=0;exitDy=0;entryX=1;entryY=0.5;entryDx=0;entryDy=0;" edge="1" parent="1" source="Cra043CWJEHbv_4mZrZP-103" target="Cra043CWJEHbv_4mZrZP-49">
          <mxGeometry relative="1" as="geometry" />
        </mxCell>
        <mxCell id="ftLE83Xh8ywQ1VL-nxvH-1" value="&lt;div&gt;&amp;lt;&amp;lt;interface&amp;gt;&amp;gt;&lt;/div&gt;CPF" style="swimlane;fontStyle=0;childLayout=stackLayout;horizontal=1;startSize=40;fillColor=none;horizontalStack=0;resizeParent=1;resizeParentMax=0;resizeLast=0;collapsible=1;marginBottom=0;whiteSpace=wrap;html=1;" vertex="1" parent="1">
          <mxGeometry x="250" y="900" width="170" height="92" as="geometry" />
        </mxCell>
        <mxCell id="ftLE83Xh8ywQ1VL-nxvH-3" value="&lt;div&gt;verificaCPF(): Boolean&lt;/div&gt;&lt;div&gt;&lt;br&gt;&lt;/div&gt;" style="text;strokeColor=none;fillColor=none;align=left;verticalAlign=top;spacingLeft=4;spacingRight=4;overflow=hidden;rotatable=0;points=[[0,0.5],[1,0.5]];portConstraint=eastwest;whiteSpace=wrap;html=1;" vertex="1" parent="ftLE83Xh8ywQ1VL-nxvH-1">
          <mxGeometry y="40" width="170" height="26" as="geometry" />
        </mxCell>
        <mxCell id="ftLE83Xh8ywQ1VL-nxvH-4" value="pegarIDPeloCPF(): Integer" style="text;strokeColor=none;fillColor=none;align=left;verticalAlign=top;spacingLeft=4;spacingRight=4;overflow=hidden;rotatable=0;points=[[0,0.5],[1,0.5]];portConstraint=eastwest;whiteSpace=wrap;html=1;" vertex="1" parent="ftLE83Xh8ywQ1VL-nxvH-1">
          <mxGeometry y="66" width="170" height="26" as="geometry" />
        </mxCell>
        <mxCell id="ftLE83Xh8ywQ1VL-nxvH-9" value="DependenteDao" style="swimlane;fontStyle=1;align=center;verticalAlign=top;childLayout=stackLayout;horizontal=1;startSize=26;horizontalStack=0;resizeParent=1;resizeParentMax=0;resizeLast=0;collapsible=1;marginBottom=0;whiteSpace=wrap;html=1;" vertex="1" parent="1">
          <mxGeometry x="-80" y="40" width="320" height="124" as="geometry" />
        </mxCell>
        <mxCell id="ftLE83Xh8ywQ1VL-nxvH-10" value="&lt;div&gt;+inserirDependente(List&amp;lt;Funcionario&amp;gt;, Connection): void &lt;span style=&quot;background-color: transparent; color: light-dark(rgb(0, 0, 0), rgb(255, 255, 255));&quot;&gt;+verificaCPF(String, Connection): Boolean&amp;nbsp;&lt;/span&gt;&lt;/div&gt;&lt;div&gt;+pegarIDPeloCPF(String, Connection): Integer&lt;/div&gt;" style="text;strokeColor=none;fillColor=none;align=left;verticalAlign=top;spacingLeft=4;spacingRight=4;overflow=hidden;rotatable=0;points=[[0,0.5],[1,0.5]];portConstraint=eastwest;whiteSpace=wrap;html=1;" vertex="1" parent="ftLE83Xh8ywQ1VL-nxvH-9">
          <mxGeometry y="26" width="320" height="64" as="geometry" />
        </mxCell>
        <mxCell id="ftLE83Xh8ywQ1VL-nxvH-11" value="" style="line;strokeWidth=1;fillColor=none;align=left;verticalAlign=middle;spacingTop=-1;spacingLeft=3;spacingRight=3;rotatable=0;labelPosition=right;points=[];portConstraint=eastwest;strokeColor=inherit;" vertex="1" parent="ftLE83Xh8ywQ1VL-nxvH-9">
          <mxGeometry y="90" width="320" height="8" as="geometry" />
        </mxCell>
        <mxCell id="ftLE83Xh8ywQ1VL-nxvH-12" value="&amp;lt;&amp;lt;implements&amp;gt;&amp;gt; CPF" style="text;strokeColor=none;fillColor=none;align=left;verticalAlign=top;spacingLeft=4;spacingRight=4;overflow=hidden;rotatable=0;points=[[0,0.5],[1,0.5]];portConstraint=eastwest;whiteSpace=wrap;html=1;" vertex="1" parent="ftLE83Xh8ywQ1VL-nxvH-9">
          <mxGeometry y="98" width="320" height="26" as="geometry" />
        </mxCell>
        <mxCell id="ftLE83Xh8ywQ1VL-nxvH-13" style="edgeStyle=orthogonalEdgeStyle;rounded=0;orthogonalLoop=1;jettySize=auto;html=1;exitX=0;exitY=0.5;exitDx=0;exitDy=0;entryX=0.5;entryY=0.043;entryDx=0;entryDy=0;entryPerimeter=0;" edge="1" parent="1" source="ftLE83Xh8ywQ1VL-nxvH-12" target="Cra043CWJEHbv_4mZrZP-46">
          <mxGeometry relative="1" as="geometry" />
        </mxCell>
        <mxCell id="ftLE83Xh8ywQ1VL-nxvH-15" style="edgeStyle=none;rounded=0;orthogonalLoop=1;jettySize=auto;html=1;exitX=1;exitY=0.5;exitDx=0;exitDy=0;entryX=0;entryY=0;entryDx=0;entryDy=0;" edge="1" parent="1" source="ftLE83Xh8ywQ1VL-nxvH-10" target="Cra043CWJEHbv_4mZrZP-86">
          <mxGeometry relative="1" as="geometry" />
        </mxCell>
        <mxCell id="ftLE83Xh8ywQ1VL-nxvH-52" style="edgeStyle=orthogonalEdgeStyle;rounded=0;orthogonalLoop=1;jettySize=auto;html=1;exitX=0.25;exitY=0;exitDx=0;exitDy=0;entryX=1;entryY=0.5;entryDx=0;entryDy=0;" edge="1" parent="1" source="ftLE83Xh8ywQ1VL-nxvH-16" target="Cra043CWJEHbv_4mZrZP-49">
          <mxGeometry relative="1" as="geometry" />
        </mxCell>
        <mxCell id="ftLE83Xh8ywQ1VL-nxvH-16" value="&amp;nbsp; FolhaDePagamentoDao&amp;nbsp;" style="swimlane;fontStyle=0;childLayout=stackLayout;horizontal=1;startSize=26;fillColor=none;horizontalStack=0;resizeParent=1;resizeParentMax=0;resizeLast=0;collapsible=1;marginBottom=0;whiteSpace=wrap;html=1;" vertex="1" parent="1">
          <mxGeometry x="320" y="740" width="330" height="110" as="geometry" />
        </mxCell>
        <mxCell id="ftLE83Xh8ywQ1VL-nxvH-17" value="&lt;div&gt;+inserirPagamento(List&amp;lt;Funcionario&amp;gt;, Connection): void&amp;nbsp;&lt;/div&gt;&lt;div&gt;+verificaID(Integer, Connection): Boolean&amp;nbsp; &amp;nbsp; &amp;nbsp; &amp;nbsp; &amp;nbsp; &amp;nbsp; &amp;nbsp;&lt;/div&gt;&lt;div&gt;+verificaCPF(String, Connection): Boolean&amp;nbsp; &amp;nbsp; &amp;nbsp; &amp;nbsp; &amp;nbsp; &amp;nbsp; &amp;nbsp; &lt;span style=&quot;background-color: transparent; color: light-dark(rgb(0, 0, 0), rgb(255, 255, 255));&quot;&gt;+pegarIDPeloCPF(String, Connection): Integer&lt;/span&gt;&lt;/div&gt;" style="text;strokeColor=none;fillColor=none;align=left;verticalAlign=top;spacingLeft=4;spacingRight=4;overflow=hidden;rotatable=0;points=[[0,0.5],[1,0.5]];portConstraint=eastwest;whiteSpace=wrap;html=1;" vertex="1" parent="ftLE83Xh8ywQ1VL-nxvH-16">
          <mxGeometry y="26" width="330" height="84" as="geometry" />
        </mxCell>
        <mxCell id="ftLE83Xh8ywQ1VL-nxvH-51" style="edgeStyle=orthogonalEdgeStyle;rounded=0;orthogonalLoop=1;jettySize=auto;html=1;exitX=0.5;exitY=0;exitDx=0;exitDy=0;" edge="1" parent="1" source="ftLE83Xh8ywQ1VL-nxvH-24" target="Cra043CWJEHbv_4mZrZP-49">
          <mxGeometry relative="1" as="geometry" />
        </mxCell>
        <mxCell id="ftLE83Xh8ywQ1VL-nxvH-24" value="&amp;nbsp; FuncionarioDao" style="swimlane;fontStyle=0;childLayout=stackLayout;horizontal=1;startSize=26;fillColor=none;horizontalStack=0;resizeParent=1;resizeParentMax=0;resizeLast=0;collapsible=1;marginBottom=0;whiteSpace=wrap;html=1;" vertex="1" parent="1">
          <mxGeometry x="-250" y="746" width="440" height="80" as="geometry" />
        </mxCell>
        <mxCell id="ftLE83Xh8ywQ1VL-nxvH-25" value="&lt;div&gt;+inserirFuncionarios(funcionarios: List&amp;lt;Funcionario&amp;gt;, conn:Connection): void&amp;nbsp;&lt;/div&gt;&lt;div&gt;+verificaCPF(cpf: String, conn: Connection): Boolean&lt;/div&gt;&lt;div&gt;+pegarIDPeloCPF(cpf: String, conn: Connection): Integer&amp;nbsp;&lt;/div&gt;" style="text;strokeColor=none;fillColor=none;align=left;verticalAlign=top;spacingLeft=4;spacingRight=4;overflow=hidden;rotatable=0;points=[[0,0.5],[1,0.5]];portConstraint=eastwest;whiteSpace=wrap;html=1;" vertex="1" parent="ftLE83Xh8ywQ1VL-nxvH-24">
          <mxGeometry y="26" width="440" height="54" as="geometry" />
        </mxCell>
        <mxCell id="ftLE83Xh8ywQ1VL-nxvH-81" style="edgeStyle=orthogonalEdgeStyle;rounded=0;orthogonalLoop=1;jettySize=auto;html=1;exitX=0;exitY=0;exitDx=0;exitDy=0;entryX=1;entryY=0.5;entryDx=0;entryDy=0;" edge="1" parent="1" source="ftLE83Xh8ywQ1VL-nxvH-28" target="Cra043CWJEHbv_4mZrZP-87">
          <mxGeometry relative="1" as="geometry" />
        </mxCell>
        <mxCell id="ftLE83Xh8ywQ1VL-nxvH-28" value="CalculoService&amp;nbsp;&amp;nbsp;" style="swimlane;fontStyle=1;align=center;verticalAlign=top;childLayout=stackLayout;horizontal=1;startSize=26;horizontalStack=0;resizeParent=1;resizeParentMax=0;resizeLast=0;collapsible=1;marginBottom=0;whiteSpace=wrap;html=1;" vertex="1" parent="1">
          <mxGeometry x="660" y="560" width="570" height="150" as="geometry" />
        </mxCell>
        <mxCell id="ftLE83Xh8ywQ1VL-nxvH-29" value="&lt;div&gt;- inssS: Double = 8157.47&amp;nbsp;&amp;nbsp;&lt;/div&gt;&lt;div&gt;- inssAL: Double = 0.14&amp;nbsp; &amp;nbsp; &amp;nbsp; &amp;nbsp;&amp;nbsp;&lt;/div&gt;&lt;div&gt;&lt;span style=&quot;background-color: transparent; color: light-dark(rgb(0, 0, 0), rgb(255, 255, 255));&quot;&gt;- dependenteV: Double = 189.59&lt;/span&gt;&lt;/div&gt;" style="text;strokeColor=none;fillColor=none;align=left;verticalAlign=top;spacingLeft=4;spacingRight=4;overflow=hidden;rotatable=0;points=[[0,0.5],[1,0.5]];portConstraint=eastwest;whiteSpace=wrap;html=1;" vertex="1" parent="ftLE83Xh8ywQ1VL-nxvH-28">
          <mxGeometry y="26" width="570" height="54" as="geometry" />
        </mxCell>
        <mxCell id="ftLE83Xh8ywQ1VL-nxvH-30" value="" style="line;strokeWidth=1;fillColor=none;align=left;verticalAlign=middle;spacingTop=-1;spacingLeft=3;spacingRight=3;rotatable=0;labelPosition=right;points=[];portConstraint=eastwest;strokeColor=inherit;" vertex="1" parent="ftLE83Xh8ywQ1VL-nxvH-28">
          <mxGeometry y="80" width="570" height="8" as="geometry" />
        </mxCell>
        <mxCell id="ftLE83Xh8ywQ1VL-nxvH-31" value="&lt;div&gt;+calcularINSS(salarioBruto: Double): Double&amp;nbsp; &amp;nbsp; &amp;nbsp; &amp;nbsp; &amp;nbsp; &amp;nbsp; &amp;nbsp; &amp;nbsp; &amp;nbsp; &amp;nbsp;&lt;/div&gt;&lt;div&gt;&amp;nbsp; &lt;span style=&quot;background-color: transparent; color: light-dark(rgb(0, 0, 0), rgb(255, 255, 255));&quot;&gt;+calcularIR(salarioBruto: Double, descontoINSS: Double, numeroDependentes: int): Double&lt;/span&gt;&lt;/div&gt;&lt;div&gt;&lt;span style=&quot;background-color: transparent; color: light-dark(rgb(0, 0, 0), rgb(255, 255, 255));&quot;&gt;&amp;nbsp;+calcularSalarioLiquido(salarioBruto: Double, descontoINSS: Double, descontoIR: Double): Double&amp;nbsp;&lt;/span&gt;&lt;/div&gt;" style="text;strokeColor=none;fillColor=none;align=left;verticalAlign=top;spacingLeft=4;spacingRight=4;overflow=hidden;rotatable=0;points=[[0,0.5],[1,0.5]];portConstraint=eastwest;whiteSpace=wrap;html=1;" vertex="1" parent="ftLE83Xh8ywQ1VL-nxvH-28">
          <mxGeometry y="88" width="570" height="62" as="geometry" />
        </mxCell>
        <mxCell id="ftLE83Xh8ywQ1VL-nxvH-32" value="&amp;nbsp;CPFInvalidoCSV&amp;nbsp;" style="swimlane;fontStyle=0;childLayout=stackLayout;horizontal=1;startSize=26;fillColor=none;horizontalStack=0;resizeParent=1;resizeParentMax=0;resizeLast=0;collapsible=1;marginBottom=0;whiteSpace=wrap;html=1;" vertex="1" parent="1">
          <mxGeometry x="470" y="900" width="390" height="52" as="geometry" />
        </mxCell>
        <mxCell id="ftLE83Xh8ywQ1VL-nxvH-33" value="+inserirCPF(funcionarios: List&amp;lt;Funcionario&amp;gt;, conn: Connection): void" style="text;strokeColor=none;fillColor=none;align=left;verticalAlign=top;spacingLeft=4;spacingRight=4;overflow=hidden;rotatable=0;points=[[0,0.5],[1,0.5]];portConstraint=eastwest;whiteSpace=wrap;html=1;" vertex="1" parent="ftLE83Xh8ywQ1VL-nxvH-32">
          <mxGeometry y="26" width="390" height="26" as="geometry" />
        </mxCell>
        <mxCell id="ftLE83Xh8ywQ1VL-nxvH-36" value="&amp;nbsp;GravacaoCSV&amp;nbsp;&amp;nbsp;" style="swimlane;fontStyle=0;childLayout=stackLayout;horizontal=1;startSize=26;fillColor=none;horizontalStack=0;resizeParent=1;resizeParentMax=0;resizeLast=0;collapsible=1;marginBottom=0;whiteSpace=wrap;html=1;" vertex="1" parent="1">
          <mxGeometry x="990" y="20" width="280" height="60" as="geometry" />
        </mxCell>
        <mxCell id="ftLE83Xh8ywQ1VL-nxvH-37" value="+gerarCSV(funcionarios: List&amp;lt;Funcionario&amp;gt;): void" style="text;strokeColor=none;fillColor=none;align=left;verticalAlign=top;spacingLeft=4;spacingRight=4;overflow=hidden;rotatable=0;points=[[0,0.5],[1,0.5]];portConstraint=eastwest;whiteSpace=wrap;html=1;" vertex="1" parent="ftLE83Xh8ywQ1VL-nxvH-36">
          <mxGeometry y="26" width="280" height="34" as="geometry" />
        </mxCell>
        <mxCell id="ftLE83Xh8ywQ1VL-nxvH-44" value="LeituraCSV" style="swimlane;fontStyle=1;align=center;verticalAlign=top;childLayout=stackLayout;horizontal=1;startSize=26;horizontalStack=0;resizeParent=1;resizeParentMax=0;resizeLast=0;collapsible=1;marginBottom=0;whiteSpace=wrap;html=1;" vertex="1" parent="1">
          <mxGeometry x="670" y="740" width="460" height="86" as="geometry" />
        </mxCell>
        <mxCell id="ftLE83Xh8ywQ1VL-nxvH-45" value="+leituraCSV(diretorio: String): List&amp;lt;Funcionario&amp;gt;" style="text;strokeColor=none;fillColor=none;align=left;verticalAlign=top;spacingLeft=4;spacingRight=4;overflow=hidden;rotatable=0;points=[[0,0.5],[1,0.5]];portConstraint=eastwest;whiteSpace=wrap;html=1;" vertex="1" parent="ftLE83Xh8ywQ1VL-nxvH-44">
          <mxGeometry y="26" width="460" height="26" as="geometry" />
        </mxCell>
        <mxCell id="ftLE83Xh8ywQ1VL-nxvH-46" value="" style="line;strokeWidth=1;fillColor=none;align=left;verticalAlign=middle;spacingTop=-1;spacingLeft=3;spacingRight=3;rotatable=0;labelPosition=right;points=[];portConstraint=eastwest;strokeColor=inherit;" vertex="1" parent="ftLE83Xh8ywQ1VL-nxvH-44">
          <mxGeometry y="52" width="460" height="8" as="geometry" />
        </mxCell>
        <mxCell id="ftLE83Xh8ywQ1VL-nxvH-47" value="&lt;div&gt;-processarBloco(bloco: List&amp;lt;String&amp;gt;, formatter: DateTimeFormatter): Funcionario&amp;nbsp;&lt;/div&gt;&lt;div&gt;&lt;br&gt;&lt;/div&gt;" style="text;strokeColor=none;fillColor=none;align=left;verticalAlign=top;spacingLeft=4;spacingRight=4;overflow=hidden;rotatable=0;points=[[0,0.5],[1,0.5]];portConstraint=eastwest;whiteSpace=wrap;html=1;" vertex="1" parent="ftLE83Xh8ywQ1VL-nxvH-44">
          <mxGeometry y="60" width="460" height="26" as="geometry" />
        </mxCell>
        <mxCell id="ftLE83Xh8ywQ1VL-nxvH-49" style="edgeStyle=orthogonalEdgeStyle;rounded=0;orthogonalLoop=1;jettySize=auto;html=1;exitX=0;exitY=0.5;exitDx=0;exitDy=0;entryX=0.25;entryY=0;entryDx=0;entryDy=0;" edge="1" parent="1" source="ftLE83Xh8ywQ1VL-nxvH-17" target="ftLE83Xh8ywQ1VL-nxvH-1">
          <mxGeometry relative="1" as="geometry" />
        </mxCell>
        <mxCell id="ftLE83Xh8ywQ1VL-nxvH-50" style="edgeStyle=orthogonalEdgeStyle;rounded=0;orthogonalLoop=1;jettySize=auto;html=1;exitX=1;exitY=0.5;exitDx=0;exitDy=0;entryX=0.25;entryY=0;entryDx=0;entryDy=0;" edge="1" parent="1" source="ftLE83Xh8ywQ1VL-nxvH-25" target="ftLE83Xh8ywQ1VL-nxvH-1">
          <mxGeometry relative="1" as="geometry" />
        </mxCell>
        <mxCell id="ftLE83Xh8ywQ1VL-nxvH-53" style="edgeStyle=orthogonalEdgeStyle;rounded=0;orthogonalLoop=1;jettySize=auto;html=1;exitX=0.5;exitY=0;exitDx=0;exitDy=0;entryX=0.372;entryY=0.99;entryDx=0;entryDy=0;entryPerimeter=0;" edge="1" parent="1" source="ftLE83Xh8ywQ1VL-nxvH-16" target="Cra043CWJEHbv_4mZrZP-105">
          <mxGeometry relative="1" as="geometry" />
        </mxCell>
        <mxCell id="ftLE83Xh8ywQ1VL-nxvH-54" style="edgeStyle=orthogonalEdgeStyle;rounded=0;orthogonalLoop=1;jettySize=auto;html=1;exitX=0;exitY=0.5;exitDx=0;exitDy=0;entryX=1;entryY=0.25;entryDx=0;entryDy=0;" edge="1" parent="1" source="ftLE83Xh8ywQ1VL-nxvH-33" target="ftLE83Xh8ywQ1VL-nxvH-1">
          <mxGeometry relative="1" as="geometry" />
        </mxCell>
        <mxCell id="ftLE83Xh8ywQ1VL-nxvH-55" value="&amp;nbsp; &amp;nbsp; &amp;nbsp; Main&amp;nbsp;" style="swimlane;fontStyle=0;childLayout=stackLayout;horizontal=1;startSize=26;fillColor=none;horizontalStack=0;resizeParent=1;resizeParentMax=0;resizeLast=0;collapsible=1;marginBottom=0;whiteSpace=wrap;html=1;" vertex="1" parent="1">
          <mxGeometry x="610" y="20" width="180" height="52" as="geometry" />
        </mxCell>
        <mxCell id="ftLE83Xh8ywQ1VL-nxvH-56" value="+main(args: String[]): void&amp;nbsp;&amp;nbsp;" style="text;strokeColor=none;fillColor=none;align=left;verticalAlign=top;spacingLeft=4;spacingRight=4;overflow=hidden;rotatable=0;points=[[0,0.5],[1,0.5]];portConstraint=eastwest;whiteSpace=wrap;html=1;" vertex="1" parent="ftLE83Xh8ywQ1VL-nxvH-55">
          <mxGeometry y="26" width="180" height="26" as="geometry" />
        </mxCell>
        <mxCell id="ftLE83Xh8ywQ1VL-nxvH-59" value="&amp;nbsp;ConnectionFactory&amp;nbsp;&amp;nbsp;" style="swimlane;fontStyle=1;align=center;verticalAlign=top;childLayout=stackLayout;horizontal=1;startSize=26;horizontalStack=0;resizeParent=1;resizeParentMax=0;resizeLast=0;collapsible=1;marginBottom=0;whiteSpace=wrap;html=1;" vertex="1" parent="1">
          <mxGeometry x="800" y="20" width="180" height="114" as="geometry" />
        </mxCell>
        <mxCell id="ftLE83Xh8ywQ1VL-nxvH-60" value="&lt;div&gt;- dotenv: Dotenv&amp;nbsp; &amp;nbsp; &amp;nbsp; &amp;nbsp; &amp;nbsp; &amp;nbsp; &amp;nbsp; &amp;nbsp; &amp;nbsp;&amp;nbsp;&lt;/div&gt;&lt;div&gt;- url: String&amp;nbsp; &amp;nbsp; &amp;nbsp; &amp;nbsp; &amp;nbsp; &amp;nbsp; &amp;nbsp; &amp;nbsp; &amp;nbsp; &amp;nbsp; &amp;nbsp; &amp;nbsp; &amp;nbsp;&amp;nbsp;&lt;/div&gt;&lt;div&gt;&lt;span style=&quot;background-color: transparent; color: light-dark(rgb(0, 0, 0), rgb(255, 255, 255));&quot;&gt;- conn: Connection&amp;nbsp;&lt;/span&gt;&lt;/div&gt;" style="text;strokeColor=none;fillColor=none;align=left;verticalAlign=top;spacingLeft=4;spacingRight=4;overflow=hidden;rotatable=0;points=[[0,0.5],[1,0.5]];portConstraint=eastwest;whiteSpace=wrap;html=1;" vertex="1" parent="ftLE83Xh8ywQ1VL-nxvH-59">
          <mxGeometry y="26" width="180" height="54" as="geometry" />
        </mxCell>
        <mxCell id="ftLE83Xh8ywQ1VL-nxvH-61" value="" style="line;strokeWidth=1;fillColor=none;align=left;verticalAlign=middle;spacingTop=-1;spacingLeft=3;spacingRight=3;rotatable=0;labelPosition=right;points=[];portConstraint=eastwest;strokeColor=inherit;" vertex="1" parent="ftLE83Xh8ywQ1VL-nxvH-59">
          <mxGeometry y="80" width="180" height="8" as="geometry" />
        </mxCell>
        <mxCell id="ftLE83Xh8ywQ1VL-nxvH-62" value="+getConnection(): Connection&amp;nbsp;" style="text;strokeColor=none;fillColor=none;align=left;verticalAlign=top;spacingLeft=4;spacingRight=4;overflow=hidden;rotatable=0;points=[[0,0.5],[1,0.5]];portConstraint=eastwest;whiteSpace=wrap;html=1;" vertex="1" parent="ftLE83Xh8ywQ1VL-nxvH-59">
          <mxGeometry y="88" width="180" height="26" as="geometry" />
        </mxCell>
        <mxCell id="ftLE83Xh8ywQ1VL-nxvH-63" style="edgeStyle=orthogonalEdgeStyle;rounded=0;orthogonalLoop=1;jettySize=auto;html=1;exitX=0;exitY=0;exitDx=0;exitDy=0;entryX=0.5;entryY=1;entryDx=0;entryDy=0;entryPerimeter=0;" edge="1" parent="1" source="Cra043CWJEHbv_4mZrZP-50" target="Cra043CWJEHbv_4mZrZP-44">
          <mxGeometry relative="1" as="geometry" />
        </mxCell>
        <mxCell id="ftLE83Xh8ywQ1VL-nxvH-64" value="&amp;nbsp;DependenteException&amp;nbsp;" style="swimlane;fontStyle=0;childLayout=stackLayout;horizontal=1;startSize=26;fillColor=none;horizontalStack=0;resizeParent=1;resizeParentMax=0;resizeLast=0;collapsible=1;marginBottom=0;whiteSpace=wrap;html=1;" vertex="1" parent="1">
          <mxGeometry x="700" y="388" width="230" height="52" as="geometry" />
        </mxCell>
        <mxCell id="ftLE83Xh8ywQ1VL-nxvH-65" value="+DependenteException(message: String)" style="text;strokeColor=none;fillColor=none;align=left;verticalAlign=top;spacingLeft=4;spacingRight=4;overflow=hidden;rotatable=0;points=[[0,0.5],[1,0.5]];portConstraint=eastwest;whiteSpace=wrap;html=1;" vertex="1" parent="ftLE83Xh8ywQ1VL-nxvH-64">
          <mxGeometry y="26" width="230" height="26" as="geometry" />
        </mxCell>
        <mxCell id="ftLE83Xh8ywQ1VL-nxvH-69" value="FolhaDePagamentoException&amp;nbsp; &amp;nbsp;&amp;nbsp;" style="swimlane;fontStyle=0;childLayout=stackLayout;horizontal=1;startSize=26;fillColor=none;horizontalStack=0;resizeParent=1;resizeParentMax=0;resizeLast=0;collapsible=1;marginBottom=0;whiteSpace=wrap;html=1;" vertex="1" parent="1">
          <mxGeometry x="670" y="470" width="290" height="52" as="geometry" />
        </mxCell>
        <mxCell id="ftLE83Xh8ywQ1VL-nxvH-70" value="+FolhaDePagamentoException(message: String)&amp;nbsp;" style="text;strokeColor=none;fillColor=none;align=left;verticalAlign=top;spacingLeft=4;spacingRight=4;overflow=hidden;rotatable=0;points=[[0,0.5],[1,0.5]];portConstraint=eastwest;whiteSpace=wrap;html=1;" vertex="1" parent="ftLE83Xh8ywQ1VL-nxvH-69">
          <mxGeometry y="26" width="290" height="26" as="geometry" />
        </mxCell>
        <mxCell id="ftLE83Xh8ywQ1VL-nxvH-78" style="edgeStyle=orthogonalEdgeStyle;rounded=0;orthogonalLoop=1;jettySize=auto;html=1;exitX=0.5;exitY=0;exitDx=0;exitDy=0;" edge="1" parent="1" source="ftLE83Xh8ywQ1VL-nxvH-73" target="Cra043CWJEHbv_4mZrZP-49">
          <mxGeometry relative="1" as="geometry" />
        </mxCell>
        <mxCell id="ftLE83Xh8ywQ1VL-nxvH-73" value="FuncionarioException&amp;nbsp;" style="swimlane;fontStyle=0;childLayout=stackLayout;horizontal=1;startSize=26;fillColor=none;horizontalStack=0;resizeParent=1;resizeParentMax=0;resizeLast=0;collapsible=1;marginBottom=0;whiteSpace=wrap;html=1;" vertex="1" parent="1">
          <mxGeometry x="40" y="650" width="240" height="52" as="geometry" />
        </mxCell>
        <mxCell id="ftLE83Xh8ywQ1VL-nxvH-74" value="+FuncionarioException(message: String)&amp;nbsp;" style="text;strokeColor=none;fillColor=none;align=left;verticalAlign=top;spacingLeft=4;spacingRight=4;overflow=hidden;rotatable=0;points=[[0,0.5],[1,0.5]];portConstraint=eastwest;whiteSpace=wrap;html=1;" vertex="1" parent="ftLE83Xh8ywQ1VL-nxvH-73">
          <mxGeometry y="26" width="240" height="26" as="geometry" />
        </mxCell>
        <mxCell id="ftLE83Xh8ywQ1VL-nxvH-79" style="edgeStyle=orthogonalEdgeStyle;rounded=0;orthogonalLoop=1;jettySize=auto;html=1;exitX=0;exitY=0.5;exitDx=0;exitDy=0;" edge="1" parent="1" source="ftLE83Xh8ywQ1VL-nxvH-70" target="Cra043CWJEHbv_4mZrZP-103">
          <mxGeometry relative="1" as="geometry" />
        </mxCell>
        <mxCell id="ftLE83Xh8ywQ1VL-nxvH-80" style="edgeStyle=orthogonalEdgeStyle;rounded=0;orthogonalLoop=1;jettySize=auto;html=1;exitX=0;exitY=0.5;exitDx=0;exitDy=0;entryX=1;entryY=0.5;entryDx=0;entryDy=0;" edge="1" parent="1" source="ftLE83Xh8ywQ1VL-nxvH-29" target="Cra043CWJEHbv_4mZrZP-105">
          <mxGeometry relative="1" as="geometry" />
        </mxCell>
        <mxCell id="ftLE83Xh8ywQ1VL-nxvH-83" style="edgeStyle=orthogonalEdgeStyle;rounded=0;orthogonalLoop=1;jettySize=auto;html=1;exitX=0;exitY=0.5;exitDx=0;exitDy=0;entryX=1;entryY=0.5;entryDx=0;entryDy=0;" edge="1" parent="1" source="ftLE83Xh8ywQ1VL-nxvH-65" target="Cra043CWJEHbv_4mZrZP-88">
          <mxGeometry relative="1" as="geometry" />
        </mxCell>
      </root>
    </mxGraphModel>
  </diagram>
</mxfile>
